<?xml version="1.0" standalone="no"?>
<!DOCTYPE svg PUBLIC "-//W3C//DTD SVG 20010904//EN"
 "http://www.w3.org/TR/2001/REC-SVG-20010904/DTD/svg10.dtd">
<svg version="1.0" xmlns="http://www.w3.org/2000/svg"
 width="588.000000pt" height="424.000000pt" viewBox="0 0 588.000000 424.000000"
 preserveAspectRatio="xMidYMid meet">

<g transform="translate(0.000000,424.000000) scale(0.100000,-0.100000)"
fill="#543e2e" stroke="none">
<path d="M3310 4025 l-44 -45 49 -50 49 -50 48 47 48 47 48 -47 48 -47 49 50
49 50 -44 45 c-25 24 -48 45 -52 45 -4 0 -27 -21 -52 -47 l-45 -48 -48 48
c-27 26 -51 47 -54 47 -3 0 -25 -20 -49 -45z"/>
<path d="M2100 3625 l0 -255 -715 0 -715 0 0 -65 0 -65 955 0 955 0 0 -140 0
-140 785 0 785 0 0 140 0 140 505 0 505 0 0 65 0 65 -505 0 -505 0 0 220 0
220 -497 0 c-366 0 -509 -4 -539 -13 -254 -76 -286 -404 -51 -529 42 -23 46
-23 505 -26 l463 -3 -3 -72 -3 -72 -660 0 -660 0 -3 393 -2 392 -60 0 -60 0 0
-255 0 -255 -180 0 -180 0 0 255 0 255 -60 0 -60 0 0 -255z m1930 -100 l0
-155 -443 0 c-409 0 -445 1 -477 18 -40 21 -80 89 -80 136 0 49 38 114 79 136
34 18 61 19 479 20 l442 0 0 -155z"/>
<path d="M1521 3696 l-63 -65 61 -60 c34 -34 65 -61 69 -61 10 0 122 113 122
123 0 7 -116 127 -122 127 -2 0 -32 -29 -67 -64z"/>
<path d="M2128 3093 l-46 -48 42 -42 c24 -24 50 -43 58 -43 9 0 32 21 53 46
l38 46 -44 44 c-24 24 -46 44 -49 44 -3 0 -27 -21 -52 -47z"/>
<path d="M2322 3094 l-44 -46 48 -49 48 -49 48 47 48 47 -47 48 c-26 26 -49
48 -52 48 -2 0 -24 -21 -49 -46z"/>
<path d="M4437 3092 l-47 -48 43 -42 c23 -23 48 -42 54 -42 6 0 28 18 49 40
22 22 43 40 49 40 5 0 30 -20 55 -45 l46 -45 47 48 47 48 -50 49 -50 49 -48
-47 -48 -47 -44 45 c-24 25 -47 45 -50 45 -3 0 -27 -22 -53 -48z"/>
<path d="M4740 2455 l0 -425 -372 0 c-369 0 -372 0 -405 23 -54 36 -67 99 -33
155 35 56 63 62 315 62 l225 0 0 60 0 60 -244 0 c-200 0 -250 -3 -282 -16 -65
-27 -105 -64 -131 -121 -21 -46 -24 -65 -21 -121 3 -37 8 -75 13 -84 7 -17 -5
-18 -169 -18 l-176 0 0 180 0 180 -323 0 -323 0 -55 -27 c-158 -81 -182 -297
-45 -406 63 -49 76 -51 356 -57 l265 -5 3 -40 c2 -21 1 -54 -3 -72 l-6 -33
-449 0 -450 0 0 540 0 540 -60 0 -60 0 0 -605 0 -605 575 0 575 0 0 140 0 140
700 0 700 0 0 490 0 490 -60 0 -60 0 0 -425z m-1406 -202 c4 -9 6 -63 5 -120
l-1 -103 -250 0 c-266 0 -288 4 -322 52 -23 33 -20 100 6 133 39 50 63 54 319
55 213 0 238 -2 243 -17z"/>
<path d="M5030 2395 l0 -485 65 0 65 0 0 485 0 485 -65 0 -65 0 0 -485z"/>
<path d="M947 2652 l-47 -48 47 -46 c27 -25 53 -44 60 -41 6 2 27 23 47 47
l35 43 -47 46 -48 47 -47 -48z"/>
<path d="M2986 2651 l-48 -48 47 -48 46 -48 50 49 49 48 50 -49 50 -49 45 44
c25 24 45 47 45 50 0 4 -21 27 -47 53 l-47 47 -48 -47 -48 -47 -48 47 -48 47
-48 -49z"/>
<path d="M1140 2649 c-19 -23 -36 -44 -38 -48 -1 -4 18 -27 43 -51 l45 -44 49
48 50 49 -42 43 c-23 24 -49 44 -57 44 -8 0 -31 -19 -50 -41z"/>
<path d="M825 2371 c-161 -73 -200 -274 -78 -396 74 -74 80 -75 600 -75 l453
0 0 245 0 245 -65 0 -65 0 0 -180 0 -180 -115 0 -115 0 0 180 0 180 -287 0
c-257 0 -292 -2 -328 -19z m493 -223 l3 -118 -216 0 c-233 0 -256 4 -289 54
-23 36 -21 97 6 131 39 50 64 55 288 52 l205 -2 3 -117z"/>
<path d="M1990 2070 l0 -320 -105 0 -105 0 0 -65 0 -65 170 0 170 0 0 385 0
385 -65 0 -65 0 0 -320z"/>
<path d="M1320 1765 l-44 -45 44 -45 c24 -25 49 -45 54 -45 6 0 30 19 53 42
l43 42 48 -47 48 -47 49 50 49 50 -44 45 c-24 25 -47 45 -50 45 -4 0 -27 -21
-53 -47 l-47 -47 -48 47 c-26 26 -50 47 -53 47 -3 0 -25 -20 -49 -45z"/>
<path d="M686 1328 c4 -13 40 -90 80 -172 l74 -148 0 -109 0 -109 35 0 35 0 0
105 0 105 78 158 c104 209 99 192 54 192 l-38 0 -38 -87 c-20 -49 -50 -111
-64 -140 l-27 -52 -62 137 -61 137 -37 3 c-34 3 -36 2 -29 -20z"/>
<path d="M1585 1340 c-6 -10 -185 -537 -185 -545 0 -3 15 -5 34 -5 24 0 36 5
41 18 3 9 16 46 28 82 l22 65 101 3 101 3 28 -86 27 -85 37 0 37 0 -53 158
c-29 86 -71 212 -94 280 l-42 122 -38 0 c-21 0 -41 -4 -44 -10z m65 -132 c12
-40 26 -84 31 -98 5 -14 13 -40 18 -57 l10 -33 -80 0 -81 0 7 33 c4 17 16 58
26 90 10 32 23 76 29 98 6 21 12 39 15 39 2 0 13 -33 25 -72z"/>
<path d="M2392 1329 c-29 -15 -51 -36 -70 -68 -26 -44 -27 -51 -27 -191 0
-130 3 -149 22 -186 24 -44 76 -84 111 -84 15 0 22 -7 24 -27 2 -23 8 -29 36
-31 26 -3 32 0 32 16 0 24 16 37 54 46 17 4 44 23 62 42 44 46 58 117 51 257
-6 135 -29 188 -96 224 -58 30 -139 31 -199 2z m175 -65 c39 -25 53 -76 53
-196 0 -89 -4 -116 -20 -148 -33 -66 -80 -80 -80 -25 0 33 -2 35 -35 35 -33 0
-35 -2 -35 -35 0 -19 -2 -35 -4 -35 -18 0 -39 18 -58 48 -20 33 -22 50 -22
162 0 108 2 130 20 160 33 57 120 73 181 34z"/>
<path d="M3175 1337 c-3 -7 -4 -131 -3 -277 l3 -265 168 -3 167 -2 0 30 0 30
-130 0 -130 0 0 100 0 100 105 0 105 0 0 30 0 30 -105 0 -105 0 0 90 0 90 125
0 125 0 0 30 0 30 -160 0 c-120 0 -162 -3 -165 -13z"/>
<path d="M3970 1070 l0 -280 165 0 165 0 0 30 0 30 -130 0 -130 0 0 100 0 100
105 0 105 0 0 30 0 30 -105 0 -105 0 0 90 0 90 125 0 125 0 0 30 0 30 -160 0
-160 0 0 -280z"/>
<path d="M4760 1070 l0 -280 36 0 35 0 -3 225 c-2 123 0 221 4 217 4 -4 35
-57 69 -117 34 -61 73 -130 88 -155 14 -25 42 -73 61 -108 33 -58 37 -62 73
-62 l37 0 0 280 0 280 -37 0 -36 0 6 -232 6 -232 -57 105 c-32 57 -91 161
-132 232 l-74 127 -38 0 -38 0 0 -280z"/>
<path d="M664 527 c-2 -7 -3 -78 -2 -157 3 -142 4 -145 26 -148 21 -3 22 0 22
67 0 69 1 71 25 71 19 0 32 -13 65 -70 29 -49 47 -70 60 -70 27 0 25 7 -15 74
l-35 58 35 33 c52 49 43 114 -20 140 -44 19 -154 20 -161 2z m154 -39 c6 -6
12 -25 12 -44 0 -40 -21 -54 -79 -54 l-41 0 0 53 c0 30 3 57 7 61 9 9 84 -3
101 -16z"/>
<path d="M1130 380 l0 -160 96 0 c86 0 95 2 92 18 -3 14 -16 18 -76 20 l-72 3
0 54 0 55 61 0 c52 0 60 2 57 18 -2 13 -15 18 -61 20 l-57 3 0 44 0 45 70 0
c63 0 70 2 70 20 0 19 -7 20 -90 20 l-90 0 0 -160z"/>
<path d="M1592 388 c-29 -84 -52 -156 -52 -160 0 -5 9 -8 20 -8 14 0 22 10 30
38 16 60 21 63 81 60 l53 -3 14 -48 c10 -35 18 -47 33 -47 10 0 19 5 19 11 0
6 -23 78 -51 160 -45 130 -54 149 -73 149 -19 0 -28 -19 -74 -152z m118 -30
c0 -4 -21 -8 -46 -8 -34 0 -45 3 -41 13 3 7 13 42 23 77 l18 64 23 -69 c13
-38 23 -73 23 -77z"/>
<path d="M2032 383 l3 -158 88 -3 c82 -3 87 -2 87 18 0 18 -6 20 -70 20 l-70
0 0 140 c0 134 -1 140 -20 140 -20 0 -20 -5 -18 -157z"/>
<path d="M2760 380 l0 -161 93 3 c74 2 92 6 92 18 0 12 -16 16 -72 18 l-73 3
0 54 0 55 61 0 c52 0 60 2 57 18 -2 13 -15 18 -61 20 l-57 3 0 44 0 45 70 0
c63 0 70 2 70 20 0 19 -7 20 -90 20 l-90 0 0 -160z"/>
<path d="M3243 529 c-30 -16 -49 -64 -37 -97 7 -19 29 -37 79 -63 77 -39 91
-65 58 -101 -14 -16 -26 -19 -56 -15 -21 3 -47 13 -56 21 -17 15 -19 15 -32 0
-11 -14 -10 -18 6 -30 55 -40 141 -37 180 6 20 22 22 84 4 107 -8 9 -42 29
-76 44 -72 33 -89 62 -53 91 27 22 46 23 84 3 20 -11 33 -12 40 -5 31 31 -91
64 -141 39z"/>
<path d="M3620 520 c0 -17 7 -20 50 -20 l50 0 0 -140 c0 -133 1 -140 20 -140
19 0 20 7 20 140 l0 140 45 0 c38 0 45 3 45 20 0 19 -7 20 -115 20 -108 0
-115 -1 -115 -20z"/>
<path d="M4150 538 c0 -2 -23 -70 -50 -151 -28 -82 -50 -152 -50 -158 0 -5 8
-9 18 -9 13 0 23 13 33 47 l14 48 59 0 59 0 14 -48 c11 -36 18 -47 34 -47 26
0 26 1 -38 186 -41 122 -47 134 -69 134 -13 0 -24 -1 -24 -2z m64 -162 c6 -25
5 -26 -39 -26 -25 0 -45 2 -45 4 0 2 9 35 21 72 l21 69 18 -47 c9 -25 20 -58
24 -72z"/>
<path d="M4492 523 c2 -14 15 -19 51 -21 l47 -3 0 -140 c0 -132 1 -139 20
-139 19 0 20 7 20 139 l0 140 48 3 c34 2 47 7 47 18 0 12 -21 16 -118 18 -109
2 -118 1 -115 -15z"/>
<path d="M4980 380 l0 -160 90 0 c83 0 90 1 90 20 0 18 -7 20 -70 20 l-70 0 0
55 0 55 61 0 c52 0 60 2 57 18 -2 10 -13 17 -28 18 -14 1 -40 2 -57 3 -32 1
-33 2 -33 46 l0 45 70 0 c63 0 70 2 70 20 0 19 -7 20 -90 20 l-90 0 0 -160z"/>
</g>
</svg>
