<svg version="1.1" xmlns="http://www.w3.org/2000/svg" xmlns:xlink="http://www.w3.org/1999/xlink" x="0" y="0" width="130" height="100" viewBox="0, 0, 130, 100"><g id="Ebene_1"><path d="M0,0 L130,0 L130,100 L0,100 L0,0 z" fill="#112038"></path> <path d="M59.615,38.504 C59.614,42.055 62.032,44.546 65.48,44.546 C68.93,44.546 71.346,42.057 71.346,38.505 C71.346,34.943 68.937,32.459 65.48,32.459 C62.024,32.459 59.615,34.942 59.615,38.504 z M54.872,38.504 C54.872,33.132 59.351,29.205 65.48,29.205 C71.61,29.205 76.091,33.132 76.091,38.504 C76.091,43.861 71.601,47.795 65.48,47.795 C59.361,47.795 54.872,43.862 54.872,38.504 z M101.056,29.875 L101.056,47.124 L114,47.124 L114,43.744 L105.549,43.744 L105.549,39.645 L111.762,39.645 L111.762,36.396 L105.549,36.396 L105.549,33.254 L113.015,33.254 L113.015,29.875 L101.056,29.875 z M79.299,29.875 L79.299,47.124 L83.798,47.124 L83.798,39.75 L91.75,39.75 L91.75,47.124 L96.251,47.124 L96.251,29.875 L91.75,29.875 L91.75,36.252 L83.798,36.252 L83.798,29.875 L79.299,29.875 z M37.413,29.875 L37.413,47.124 L41.915,47.124 L41.915,33.129 L43.855,33.129 C46.4,33.129 47.54,33.942 47.54,35.751 C47.54,37.599 46.265,38.655 44.025,38.655 L43.036,38.629 L42.53,38.629 L48.784,47.124 L54.537,47.124 L48.803,40.188 C50.932,39.227 52.067,37.522 52.067,35.28 C52.067,31.626 49.7,29.875 44.761,29.875 L37.413,29.875 z M29.048,38.463 L29.048,43.635 C27.867,44.129 26.688,44.376 25.513,44.376 C22.484,44.376 20.354,42.037 20.354,38.708 C20.354,35.121 22.899,32.621 26.552,32.621 C28.594,32.621 30.616,33.191 33.069,34.455 L33.069,31.017 C29.936,29.736 28.39,29.371 26.074,29.371 C19.679,29.371 15.594,32.989 15.594,38.654 C15.594,44.043 19.558,47.627 25.517,47.627 C28.174,47.627 31.325,46.772 33.621,45.431 L33.621,38.463 L29.048,38.463 z M96.501,66.368 L96.068,66.211 L94.887,65.816 C91.46,64.783 88.718,64.267 86.624,64.267 C84.871,64.267 81.902,64.772 79.548,65.469 L78.373,65.816 C77.777,66.013 77.378,66.143 77.185,66.211 L76.004,66.618 L74.831,67.016 L73.649,67.418 C70.062,68.579 67.509,69.097 65.387,69.097 C63.559,69.097 60.849,68.597 58.304,67.791 L57.122,67.418 L55.943,67.016 L54.766,66.618 L53.585,66.211 L52.399,65.816 C48.977,64.783 46.228,64.267 44.146,64.267 C42.38,64.269 39.416,64.77 37.059,65.469 L35.885,65.816 C35.047,66.086 34.875,66.147 34.27,66.368 L36.645,67.6 L37.178,67.439 C39.947,66.583 42.331,66.137 44.151,66.137 C45.682,66.137 48.074,66.527 50.042,67.095 L51.224,67.439 L52.399,67.819 L53.585,68.211 L54.766,68.619 L55.943,69.018 L57.122,69.412 C60.668,70.5 63.278,71.001 65.388,71 C67.199,70.999 69.966,70.517 72.468,69.767 L73.649,69.412 L74.831,69.018 L76.004,68.619 L77.185,68.211 L78.373,67.819 L79.548,67.439 C82.561,66.544 84.782,66.137 86.628,66.138 C88.447,66.138 90.828,66.584 93.595,67.439 L94.127,67.6 L96.501,66.368 z M104.198,61.892 L97.321,59.781 C94.229,58.831 93.033,58.497 91.384,58.133 C89.639,57.747 87.89,57.525 86.625,57.525 C84.63,57.525 80.826,58.235 78.373,59.065 L73.649,60.666 C70.452,61.749 67.509,62.346 65.362,62.346 C63.203,62.346 60.289,61.755 57.076,60.666 L52.352,59.065 C49.906,58.236 46.087,57.525 44.09,57.525 C42.832,57.525 41.067,57.75 39.335,58.133 C37.705,58.495 36.413,58.853 33.397,59.781 L26.528,61.892 C27.262,62.56 27.458,62.714 28.28,63.271 L32.098,62.109 L35.253,61.178 L36.52,60.803 C39.877,59.813 42.154,59.388 44.094,59.388 C45.857,59.388 49.045,59.971 51.17,60.686 L57.076,62.667 C59.842,63.594 63.267,64.248 65.363,64.248 C67.451,64.248 70.907,63.59 73.649,62.667 L79.548,60.686 C81.665,59.975 84.872,59.386 86.628,59.388 C88.575,59.388 90.832,59.81 94.198,60.803 L95.465,61.178 L98.621,62.109 L102.446,63.271 C103.264,62.71 103.459,62.557 104.198,61.892 z M111.243,55.247 L111.047,55.575 C110.607,56.31 110.407,56.583 109.748,57.365 C108.911,57.479 108.576,57.504 107.913,57.504 C105.809,57.504 102.364,56.844 99.611,55.916 L94.887,54.32 C91.678,53.24 88.747,52.643 86.628,52.641 C84.843,52.641 81.715,53.215 79.548,53.941 L73.649,55.916 C70.868,56.846 67.455,57.504 65.388,57.504 C63.323,57.504 59.907,56.847 57.122,55.916 L51.224,53.941 C49.056,53.215 45.933,52.641 44.146,52.641 C42.03,52.641 39.091,53.24 35.885,54.32 L31.161,55.916 C28.406,56.844 24.963,57.504 22.854,57.504 C22.191,57.504 21.859,57.479 21.031,57.365 C20.418,56.66 20.178,56.332 19.724,55.575 L19.529,55.247 C21.128,55.507 22.022,55.601 22.899,55.601 C25.001,55.601 28.008,54.989 31.161,53.922 L35.885,52.32 C38.381,51.474 42.108,50.778 44.146,50.777 C46.174,50.777 49.904,51.476 52.399,52.32 L57.122,53.922 C60.274,54.989 63.284,55.601 65.387,55.601 C67.488,55.601 70.498,54.989 73.649,53.922 L78.373,52.32 C80.865,51.476 84.597,50.777 86.622,50.777 C88.665,50.777 92.385,51.474 94.887,52.32 L99.611,53.922 C102.763,54.989 105.77,55.601 107.872,55.601 C108.749,55.601 109.643,55.507 111.243,55.247 z" fill="#FFFFFE"></path></g></svg>